PathFileType	4	(X/Y/Z)	Walk8.trc
DataRate	CameraRate	NumFrames	NumMarkers	Units	OrigDataRate	OrigDataStartFrame	OrigNumFrames
200.000000	200.000000	7	59	mm	200.000000	582	625
Frame#	Times		LFHD		RFHD		CLAV		STRN		LASI		RASI		RACR1		RUA1		RElbow		RFA1		RWRR		RWRU		RCAR		LACR1		LUA1		LElbow		LFA1		LWRR		RTB1		RTB2		LTH1		LTH3		LTH2		LMFC		LTB1		LTB2		LMT1		RTH2		LTB4		LLFC		LCAR		LWRU		LTB3		LMT5		LToe		RTB4		RTH3		RTB3		RMFC		LTH4		RTH1		RTH4		RMMAL		RBHD		RElbowM		RLFC		RToe		RBack		RMT1		RCAL		LLMAL		LElbowM		LMMAL		RPSI		C7		T10		LPSI		LBHD		LCAL
			X1	Y1	Z1	X2	Y2	Z2	X3	Y3	Z3	X4	Y4	Z4	X5	Y5	Z5	X6	Y6	Z6	X7	Y7	Z7	X8	Y8	Z8	X9	Y9	Z9	X10	Y10	Z10	X11	Y11	Z11	X12	Y12	Z12	X13	Y13	Z13	X14	Y14	Z14	X15	Y15	Z15	X16	Y16	Z16	X17	Y17	Z17	X18	Y18	Z18	X19	Y19	Z19	X20	Y20	Z20	X21	Y21	Z21	X22	Y22	Z22	X23	Y23	Z23	X24	Y24	Z24	X25	Y25	Z25	X26	Y26	Z26	X27	Y27	Z27	X28	Y28	Z28	X29	Y29	Z29	X30	Y30	Z30	X31	Y31	Z31	X32	Y32	Z32	X33	Y33	Z33	X34	Y34	Z34	X35	Y35	Z35	X36	Y36	Z36	X37	Y37	Z37	X38	Y38	Z38	X39	Y39	Z39	X40	Y40	Z40	X41	Y41	Z41	X42	Y42	Z42	X43	Y43	Z43	X44	Y44	Z44	X45	Y45	Z45	X46	Y46	Z46	X47	Y47	Z47	X48	Y48	Z48	X49	Y49	Z49	X50	Y50	Z50	X51	Y51	Z51	X52	Y52	Z52	X53	Y53	Z53	X54	Y54	Z54	X55	Y55	Z55	X56	Y56	Z56	X57	Y57	Z57	X58	Y58	Z58	X59	Y59	Z59

582	2.91	1485.1	1675.3	20.497	1482.4	1664.2	-77.756	1479.5	1414.7	1.762	1543	1255.8	8.515	1412.7	996.38	-164.28	1437.6	1003.6	204.46	1365.3	1509.6	167.76	1336.8	1352.4	297.23	1339.1	1206.9	355.16	1366.7	1057.6	379.99	1384.2	935.25	317.78	1379.5	945.18	399.32	1407.1	856.87	370.37	1361.6	1470	-181.81	1349.7	1292.8	-266.02	1371	1128.9	-314.43	1428.4	1000.9	-320.4	1508.4	898.44	-256.04	1535.8	414.41	178.41	1479.1	339.53	226.62	1338.4	764.19	-173.51	1344.9	596.51	-142.09	1399.4	685.74	-146.81	1355.1	507.86	20.56	1387.2	385.67	-71.8	1339.3	297.46	-101.65	1398.8	36.114	-19.458	1490.2	755.9	238.24	1373.3	305.28	-49.916	1325.9	512.18	-134.34	1546.3	820.51	-288.31	1473.7	869.58	-314.97	1351.6	222.76	-30.002	1324	25.443	-90.045	1448.4	25.315	-64.263	1505.7	333.73	171.57	1478.9	651.48	245.7	1475.7	253.56	163.93	1508.9	540.2	87.77	1340.7	681.99	-158.25	1397.8	804.6	253.13	1439.9	727.98	251.15	1409.7	131.47	103.85	1330.2	1590	-79.437	1279.9	1132.2	268.16	1490.8	544.8	241.27	1550.9	66.965	195.7	1219.4	1389.4	118.38	1517.5	58.275	154.92	1306.4	110.19	127.33	1240.4	78.392	-16.573	1315.7	1066.8	-220.56	1275.9	86.678	66.312	1171.9	1043.1	64.377	1287	1497.3	-3.7482	1215.5	1184.3	19.603	1175.8	1055.1	-21.226	1351.1	1611	68.881	1194.3	54.455	46.448
583	2.915	1491.3	1674.9	20.787	1488.5	1663.9	-77.483	1485.4	1414.3	1.7244	1548.7	1255.3	8.1825	1418	996.37	-164.4	1444.3	1003.2	203.4	1371.3	1509.1	167.77	1342.2	1352.1	297.26	1343.9	1206.5	355.33	1370.7	1057.1	380.32	1387.5	934.5	318.3	1382.8	944.55	399.82	1409.8	855.99	370.99	1367.4	1469.8	-181.78	1356.9	1292.8	-266.24	1380.2	1129.2	-314.99	1439.1	1001.9	-320.96	1519.9	900.31	-256.42	1548	415.78	177.91	1493.4	339.42	226.22	1342.3	764.04	-173.8	1348.2	596.19	-142.24	1403.1	685.12	-146.94	1358.2	507.47	20.445	1389.4	385	-71.822	1341	297.07	-101.62	1398.9	36.054	-19.504	1497.4	756.55	237.71	1375.1	304.71	-49.901	1328.8	511.88	-134.4	1558.9	822.92	-288.63	1485.8	871.17	-315.6	1352.9	222.32	-29.935	1324	25.473	-89.984	1448.5	25.221	-64.393	1520.5	334.16	171.36	1486.6	652.03	244.76	1493	253.03	164.02	1517.5	540.93	86.715	1344.5	681.75	-158.53	1404.7	804.61	252.96	1447.1	728.25	250.62	1431.1	128.72	104.12	1336.2	1589.8	-79.295	1284.5	1132	268.32	1499.4	545.18	240.2	1573.8	68.863	196.74	1225.4	1389	118.33	1540.8	59.015	155.86	1328.3	104.36	127.32	1240.7	78.64	-16.391	1325.1	1066.7	-221.34	1276.4	86.786	66.454	1177.8	1042.9	64.829	1292.9	1496.9	-3.7248	1221.4	1184	19.866	1181.4	1055.1	-20.73	1357.2	1610.6	69.057	1194.6	54.846	46.686
584	2.92	1497.4	1674.4	21.083	1494.6	1663.5	-77.205	1491.3	1413.8	1.6895	1554.5	1254.7	7.8519	1423.3	996.32	-164.49	1450.9	1002.8	202.35	1377.3	1508.5	167.79	1347.7	1351.6	297.29	1348.8	1206.1	355.5	1374.7	1056.5	380.64	1390.8	933.7	318.82	1386.1	943.88	400.33	1412.4	855.07	371.61	1373.3	1469.5	-181.73	1364.3	1292.6	-266.44	1389.3	1129.5	-315.53	1449.7	1002.9	-321.5	1531.3	902.16	-256.78	1560	417.13	177.4	1507.5	339.34	225.81	1346.3	763.85	-174.07	1351.6	595.84	-142.39	1406.9	684.49	-147.08	1361.3	507.06	20.317	1391.7	384.3	-71.846	1342.7	296.67	-101.59	1399	35.995	-19.549	1504.4	757.04	237.18	1376.8	304.12	-49.885	1331.8	511.56	-134.47	1571.4	825.33	-288.94	1497.9	872.76	-316.2	1354.1	221.87	-29.865	1324	25.503	-89.916	1448.6	25.128	-64.524	1535.1	334.64	171.13	1494.3	652.43	243.83	1510.1	252.65	164.11	1525.9	541.48	85.649	1348.3	681.48	-158.81	1411.5	804.51	252.83	1454.3	728.39	250.1	1452.4	126.24	104.37	1342.3	1589.6	-79.148	1289	1131.8	268.46	1507.9	545.42	239.13	1596.5	71.036	197.7	1231.3	1388.6	118.31	1564	60.067	156.73	1350.4	98.796	127.33	1241.1	78.896	-16.21	1334.5	1066.5	-222.12	1276.9	86.896	66.598	1183.7	1042.7	65.301	1298.9	1496.5	-3.683	1227.3	1183.7	20.179	1186.9	1054.9	-20.191	1363.2	1610.1	69.233	1194.9	55.248	46.924
585	2.925	1503.5	1673.8	21.383	1500.8	1663.1	-76.921	1497.2	1413.2	1.6574	1560.3	1254	7.5238	1428.6	996.23	-164.55	1457.6	1002.2	201.31	1383.3	1507.9	167.83	1353.1	1351.2	297.34	1353.6	1205.6	355.66	1378.7	1055.8	380.96	1394.2	932.86	319.32	1389.5	943.17	400.82	1415.2	854.11	372.21	1379.1	1469.2	-181.68	1371.6	1292.5	-266.61	1398.4	1129.8	-316.05	1460.2	1003.9	-322.01	1542.7	904	-257.12	1571.8	418.47	176.87	1521.5	339.3	225.4	1350.4	763.6	-174.32	1355.1	595.46	-142.54	1410.7	683.85	-147.22	1364.5	506.61	20.179	1394	383.57	-71.872	1344.4	296.24	-101.56	1399.1	35.936	-19.595	1511.3	757.37	236.65	1378.7	303.5	-49.869	1334.9	511.21	-134.55	1583.8	827.75	-289.24	1509.8	874.32	-316.77	1355.4	221.4	-29.793	1324	25.533	-89.843	1448.8	25.037	-64.654	1549.6	335.19	170.89	1501.8	652.68	242.91	1527.2	252.42	164.17	1534.1	541.84	84.576	1352.2	681.16	-159.08	1418.3	804.3	252.71	1461.4	728.4	249.61	1473.7	124.04	104.61	1348.4	1589.3	-78.996	1293.6	1131.6	268.61	1516.2	545.52	238.07	1619.1	73.494	198.57	1237.2	1388.1	118.33	1587.1	61.443	157.52	1372.5	93.528	127.39	1241.5	79.159	-16.03	1343.9	1066.1	-222.9	1277.5	87.008	66.745	1189.6	1042.3	65.793	1305	1496	-3.6237	1233.3	1183.3	20.542	1192.5	1054.7	-19.61	1369.3	1609.6	69.411	1195.3	55.659	47.16
586	2.93	1509.6	1673.2	21.69	1506.9	1662.6	-76.631	1503.1	1412.6	1.6283	1566.1	1253.3	7.1988	1433.9	996.1	-164.61	1464.3	1001.6	200.31	1389.4	1507.2	167.88	1358.6	1350.6	297.39	1358.5	1205.1	355.83	1382.7	1055.1	381.27	1397.5	931.99	319.82	1392.8	942.42	401.3	1417.9	853.12	372.81	1385	1468.8	-181.61	1378.9	1292.2	-266.77	1407.5	1130	-316.54	1470.7	1004.9	-322.5	1554	905.83	-257.44	1583.4	419.79	176.32	1535.5	339.3	224.98	1354.5	763.32	-174.53	1358.6	595.06	-142.7	1414.6	683.18	-147.38	1367.8	506.14	20.034	1396.4	382.8	-71.899	1346.2	295.8	-101.54	1399.2	35.88	-19.64	1518.2	757.54	236.11	1380.5	302.86	-49.853	1338	510.83	-134.63	1596.2	830.16	-289.52	1521.8	875.88	-317.31	1356.7	220.92	-29.72	1324	25.562	-89.764	1448.9	24.95	-64.782	1564	335.81	170.61	1509.1	652.77	242.01	1544.1	252.34	164.22	1542	541.99	83.499	1356.1	680.81	-159.34	1425	803.98	252.61	1468.4	728.27	249.13	1495	122.12	104.82	1354.4	1588.9	-78.837	1298.3	1131.3	268.74	1524.4	545.46	237.03	1641.5	76.246	199.33	1243.2	1387.5	118.39	1610	63.149	158.21	1394.7	88.568	127.48	1241.9	79.43	-15.852	1353.3	1065.6	-223.71	1278	87.121	66.895	1195.6	1042	66.309	1311	1495.5	-3.5472	1239.2	1182.9	20.955	1198.1	1054.5	-18.987	1375.4	1609	69.588	1195.6	56.079	47.395
587	2.935	1515.8	1672.5	22.004	1513	1662.1	-76.334	1509.1	1411.9	1.6031	1571.9	1252.5	6.8777	1439.2	995.91	-164.66	1471	1000.9	199.35	1395.5	1506.5	167.94	1364.1	1350.1	297.45	1363.4	1204.5	356	1386.8	1054.4	381.58	1400.9	931.08	320.31	1396.2	941.63	401.78	1420.6	852.09	373.39	1390.9	1468.3	-181.52	1386.3	1292	-266.91	1416.6	1130.2	-317.01	1481	1005.8	-322.96	1565.2	907.62	-257.75	1594.9	421.09	175.74	1549.4	339.36	224.56	1358.6	762.98	-174.72	1362.2	594.63	-142.85	1418.5	682.5	-147.53	1371.2	505.64	19.884	1398.8	382.01	-71.929	1348	295.35	-101.51	1399.3	35.824	-19.684	1525	757.54	235.56	1382.4	302.2	-49.837	1341.2	510.44	-134.72	1608.4	832.57	-289.79	1533.6	877.41	-317.82	1358	220.42	-29.646	1324.1	25.589	-89.68	1449	24.867	-64.908	1578.1	336.51	170.31	1516.3	652.72	241.13	1560.9	252.43	164.22	1549.8	541.93	82.422	1360.1	680.4	-159.58	1431.7	803.54	252.53	1475.3	728.01	248.68	1516.1	120.5	105.02	1360.5	1588.5	-78.672	1302.9	1130.9	268.86	1532.5	545.25	236.01	1663.8	79.298	199.93	1249.2	1386.9	118.48	1632.8	65.192	158.77	1416.9	83.929	127.61	1242.3	79.708	-15.676	1362.7	1065	-224.54	1278.5	87.233	67.049	1201.5	1041.5	66.848	1317	1494.9	-3.4532	1245.1	1182.4	21.414	1203.7	1054.2	-18.324	1381.4	1608.3	69.767	1195.9	56.508	47.629
588	2.94	1521.9	1671.8	22.327	1519.2	1661.5	-76.027	1515	1411.2	1.5826	1577.7	1251.7	6.5615	1444.5	995.68	-164.71	1477.7	1000.1	198.44	1401.6	1505.7	168.02	1369.6	1349.4	297.51	1368.3	1203.9	356.17	1390.8	1053.6	381.89	1404.3	930.13	320.8	1399.6	940.81	402.24	1423.4	851.04	373.96	1396.8	1467.8	-181.42	1393.6	1291.6	-267.04	1425.5	1130.3	-317.46	1491.4	1006.8	-323.4	1576.4	909.4	-258.04	1606.1	422.37	175.13	1563.2	339.46	224.12	1362.8	762.6	-174.89	1365.8	594.17	-143.01	1422.4	681.79	-147.7	1374.6	505.11	19.732	1401.3	381.19	-71.961	1349.9	294.88	-101.49	1399.4	35.771	-19.727	1531.7	757.38	235.02	1384.4	301.52	-49.822	1344.4	510.01	-134.81	1620.6	834.97	-290.05	1545.3	878.92	-318.3	1359.3	219.91	-29.571	1324.1	25.616	-89.591	1449.1	24.789	-65.031	1592.2	337.27	169.96	1523.4	652.5	240.28	1577.6	252.67	164.18	1557.4	541.65	81.35	1364.1	679.95	-159.79	1438.3	802.99	252.46	1482.1	727.61	248.24	1537.1	119.18	105.19	1366.7	1588	-78.499	1307.6	1130.5	268.96	1540.4	544.9	235.03	1685.8	82.655	200.37	1255.2	1386.2	118.6	1655.3	67.575	159.19	1439.1	79.623	127.8	1242.7	79.993	-15.504	1372	1064.2	-225.41	1279	87.343	67.207	1207.5	1041	67.412	1323.1	1494.2	-3.3408	1251.1	1181.9	21.92	1209.4	1053.8	-17.621	1387.5	1607.6	69.949	1196.2	56.946	47.861
